<?xml version="1.0" standalone="no"?>
<!DOCTYPE svg PUBLIC "-//W3C//DTD SVG 20010904//EN"
 "http://www.w3.org/TR/2001/REC-SVG-20010904/DTD/svg10.dtd">
<svg version="1.0" xmlns="http://www.w3.org/2000/svg"
 width="587.000000pt" height="488.000000pt" viewBox="0 0 587.000000 488.000000"
 preserveAspectRatio="xMidYMid meet">

<g transform="translate(0.000000,488.000000) scale(0.100000,-0.100000)"
fill="#1E90FF" stroke="none">
<path d="M2055 4294 c-343 -53 -661 -192 -940 -409 -99 -77 -269 -253 -353
-363 -179 -239 -312 -547 -368 -857 -26 -142 -26 -508 0 -650 101 -555 411
-1025 877 -1332 227 -149 513 -256 793 -298 133 -19 400 -20 549 0 420 55 837
264 1137 569 l64 66 -38 0 c-35 0 -47 -8 -122 -79 -244 -236 -566 -404 -904
-475 -651 -138 -1304 56 -1767 525 -178 180 -309 373 -404 596 -103 239 -150
476 -150 753 0 360 83 669 261 970 89 150 167 252 293 378 398 402 940 607
1490 564 466 -36 866 -210 1181 -513 75 -71 87 -79 122 -79 l38 0 -74 75
c-296 299 -709 505 -1126 560 -137 18 -438 18 -559 -1z"/>
<path d="M4182 3243 c-23 -136 -44 -249 -46 -251 -2 -1 -32 7 -67 19 -53 17
-78 20 -144 16 -44 -3 -97 -11 -117 -17 -92 -27 -189 -125 -228 -230 -28 -76
-70 -311 -70 -393 0 -163 93 -243 280 -241 103 1 159 24 219 89 l41 44 19 -45
c27 -61 85 -88 191 -88 62 -1 84 4 131 27 l56 27 6 68 c13 133 15 128 -50 127
l-58 0 -3 35 c-2 26 139 864 174 1033 l6 27 -149 0 -148 0 -43 -247z m-111
-482 l23 -19 -27 -152 c-28 -158 -33 -169 -85 -190 -56 -24 -135 -3 -158 42
-14 27 -14 39 1 131 19 110 30 140 67 173 30 28 43 32 104 33 37 1 59 -5 75
-18z"/>
<path d="M1859 3231 l-156 -66 -63 -359 c-47 -274 -61 -374 -58 -421 13 -151
111 -227 314 -242 246 -18 426 94 499 310 39 116 47 108 -116 105 l-142 -3
-13 -45 c-27 -92 -120 -143 -192 -106 -51 26 -56 67 -30 224 l22 132 242 0
243 0 10 53 c20 101 32 179 29 183 -2 2 -108 4 -236 5 -128 0 -234 4 -237 9
-2 4 6 70 20 146 13 76 23 139 22 140 -1 0 -72 -29 -158 -65z"/>
<path d="M2891 3014 c-136 -30 -232 -98 -285 -202 -37 -74 -79 -285 -80 -407
-1 -119 13 -152 87 -202 89 -60 276 -79 432 -45 146 33 230 94 281 206 21 46
64 247 80 371 23 183 -123 297 -375 294 -42 -1 -105 -7 -140 -15z m180 -255
c34 -37 36 -63 14 -188 -17 -99 -50 -156 -100 -177 -68 -28 -124 -12 -151 43
-15 33 -15 42 1 132 29 164 71 221 163 221 36 0 49 -6 73 -31z"/>
<path d="M4991 3019 c-143 -28 -234 -83 -291 -177 -40 -65 -61 -138 -91 -316
-25 -153 -20 -211 25 -277 93 -137 498 -145 670 -14 79 60 114 141 150 346 37
206 33 275 -20 338 -75 89 -272 134 -443 100z m140 -242 c9 -7 24 -27 33 -46
17 -31 17 -39 1 -129 -19 -110 -34 -147 -76 -188 -26 -25 -38 -29 -86 -29 -48
0 -58 4 -79 28 -16 19 -24 40 -24 65 0 56 27 197 43 229 16 31 53 67 77 76 28
10 95 7 111 -6z"/>
<path d="M1771 1788 c-12 -30 -155 -382 -175 -430 l-16 -38 49 0 49 0 24 60
23 60 139 -2 138 -3 22 -55 c22 -55 22 -55 69 -58 26 -2 47 1 47 5 0 4 -43
115 -97 246 l-96 237 -84 0 c-77 0 -84 -2 -92 -22z m160 -180 l48 -118 -116 0
c-88 0 -114 3 -110 13 33 82 100 244 105 251 7 12 18 -10 73 -146z"/>
<path d="M2210 1565 l0 -245 50 0 50 0 0 80 0 80 40 0 c39 0 41 -2 92 -80 l53
-80 53 0 c28 0 52 2 52 5 0 2 -28 45 -62 94 l-61 89 61 85 c33 47 59 87 57 89
-2 1 -25 1 -52 0 -47 -4 -49 -5 -101 -78 -51 -71 -55 -74 -93 -74 l-39 0 0
140 0 140 -50 0 -50 0 0 -245z"/>
<path d="M3135 1763 c13 -97 15 -103 40 -103 30 0 31 2 40 83 l7 67 -47 0 -46
0 6 -47z"/>
<path d="M4141 1788 c-12 -30 -155 -382 -175 -430 l-16 -38 48 0 49 0 26 60
26 61 136 -3 137 -3 22 -55 c22 -55 22 -55 69 -58 26 -2 47 1 47 5 0 4 -43
115 -97 246 l-96 237 -84 0 c-77 0 -84 -2 -92 -22z m160 -180 l48 -118 -116 0
c-88 0 -114 3 -110 13 3 6 22 53 42 102 71 174 65 162 77 141 6 -11 32 -72 59
-138z"/>
<path d="M2775 1688 c-43 -15 -93 -54 -109 -86 -21 -41 -29 -114 -17 -159 25
-92 94 -137 211 -137 119 -1 187 49 211 151 10 48 -5 127 -32 165 -46 63 -177
96 -264 66z m129 -42 c44 -18 66 -67 66 -146 0 -119 -70 -185 -154 -145 -46
22 -68 71 -68 150 1 76 21 121 65 140 41 18 50 18 91 1z"/>
<path d="M3360 1689 c-72 -22 -105 -81 -76 -137 17 -33 59 -55 150 -82 118
-34 139 -53 110 -97 -15 -24 -20 -25 -97 -21 -52 2 -95 10 -116 21 -32 16 -36
16 -50 2 -15 -15 -14 -18 4 -31 51 -38 217 -52 297 -25 90 30 105 129 27 175
-16 10 -72 31 -124 47 -82 26 -96 33 -101 55 -4 17 -1 31 9 41 22 22 117 18
174 -7 25 -11 47 -19 47 -18 1 2 8 11 15 21 12 15 9 19 -34 38 -55 25 -181 34
-235 18z"/>
<path d="M5084 1681 c-2 -2 -4 -114 -4 -248 l0 -243 45 0 44 0 3 63 3 62 90 5
c147 9 215 66 215 180 0 80 -51 150 -123 169 -41 10 -265 20 -273 12z m236
-54 c75 -37 80 -203 7 -247 -23 -14 -50 -20 -94 -20 l-63 0 0 140 0 140 63 0
c34 0 73 -6 87 -13z"/>
<path d="M4580 1435 l0 -245 50 0 50 0 0 65 0 65 83 0 c66 0 92 5 127 23 132
66 130 257 -4 318 -33 15 -66 19 -173 19 l-133 0 0 -245z m261 177 c36 -32 50
-90 39 -154 -6 -29 -18 -52 -39 -70 -27 -25 -39 -28 -96 -28 l-65 0 0 140 0
140 65 0 c57 0 69 -3 96 -28z"/>
</g>
</svg>
